{
  "accessors": [
    {
      "bufferView": 1,
      "componentType": 5126,
      "count": 9000,
      "max": [
        0.22169700264930725,
        0.35224899649620056,
        0.1927880048751831
      ],
      "min": [
        -0.22950099408626556,
        -0.39877399802207947,
        -0.12794199585914612
      ],
      "type": "VEC3"
    },
    {
      "bufferView": 1,
      "byteOffset": 108000,
      "componentType": 5126,
      "count": 9000,
      "max": [
        0.9992016553878784,
        0.9989498853683472,
        0.9996549487113953
      ],
      "min": [
        -0.999984622001648,
        -0.9999537467956543,
        -0.9999954700469971
      ],
      "type": "VEC3"
    },
    {
      "bufferView": 0,
      "componentType": 5125,
      "count": 9000,
      "type": "SCALAR"
    }
  ],
  "asset": {
    "extras": {
      "author": "Jérémie Louvetz (https://sketchfab.com/jeremielouvetz)",
      "license": "CC-BY-NC-4.0 (http://creativecommons.org/licenses/by-nc/4.0/)",
      "source": "https://sketchfab.com/3d-models/seychelles-giant-tortoise-59332bfdf3dc4fd29f8169388c99c25f",
      "title": "Seychelles Giant Tortoise"
    },
    "generator": "Sketchfab-12.68.0",
    "version": "2.0"
  },
  "bufferViews": [
    {
      "buffer": 0,
      "byteLength": 36000,
      "name": "floatBufferViews",
      "target": 34963
    },
    {
      "buffer": 0,
      "byteLength": 216000,
      "byteOffset": 36000,
      "byteStride": 12,
      "name": "floatBufferViews",
      "target": 34962
    }
  ],
  "buffers": [
    {
      "byteLength": 252000,
      "uri": "scene.bin"
    }
  ],
  "materials": [
    {
      "doubleSided": true,
      "name": "Solid",
      "pbrMetallicRoughness": {
        "baseColorFactor": [
          0.2527695292606712,
          0.16839821203101965,
          0.04652970588127548,
          1.0
        ],
        "metallicFactor": 0.0,
        "roughnessFactor": 0.4
      }
    }
  ],
  "meshes": [
    {
      "name": "Object_0",
      "primitives": [
        {
          "attributes": {
            "NORMAL": 1,
            "POSITION": 0
          },
          "indices": 2,
          "material": 0,
          "mode": 4
        }
      ]
    }
  ],
  "nodes": [
    {
      "children": [
        1
      ],
      "matrix": [
        1.0,
        0.0,
        0.0,
        0.0,
        0.0,
        2.220446049250313e-16,
        -1.0,
        0.0,
        0.0,
        1.0,
        2.220446049250313e-16,
        0.0,
        0.0,
        0.0,
        0.0,
        1.0
      ],
      "name": "Sketchfab_model"
    },
    {
      "children": [
        2
      ],
      "name": "seychelles_giant_tortoise_sketchfab.obj.cleaner.gles"
    },
    {
      "mesh": 0,
      "name": "Object_2"
    }
  ],
  "scene": 0,
  "scenes": [
    {
      "name": "Sketchfab_Scene",
      "nodes": [
        0
      ]
    }
  ]
}
